<svg
    xmlns="http://www.w3.org/2000/svg"
    viewBox="0 0 357 357"
    id="vector">
    <defs>
        <clipPath id="clip_path_16">
            <path d="M 0 0 L 357 0 L 357 357 L 0 357 Z M 0 0"/>
        </clipPath>
        <clipPath id="clip_path_17">
            <path d="M 0 0 L 357 0 L 357 357 L 0 357 Z M 0 0"/>
        </clipPath>
        <clipPath id="clip_path_18">
            <path d="M 0 0 L 357 0 L 357 357 L 0 357 Z M 0 0"/>
        </clipPath>
        <clipPath id="clip_path_19">
            <path d="M 0 0 L 357 0 L 357 357 L 0 357 Z M 0 0"/>
        </clipPath>
        <clipPath id="clip_path_20">
            <path d="M 0 0 L 357 0 L 357 357 L 0 357 Z M 0 0"/>
        </clipPath>
        <clipPath id="clip_path_21">
            <path d="M 0 0 L 357 0 L 357 357 L 0 357 Z M 0 0"/>
        </clipPath>
        <clipPath id="clip_path_22">
            <path d="M 0 0 L 357 0 L 357 357 L 0 357 Z M 0 0"/>
        </clipPath>
        <clipPath id="clip_path_23">
            <path d="M 0 0 L 357 0 L 357 357 L 0 357 Z M 0 0"/>
        </clipPath>
        <clipPath id="clip_path_24">
            <path d="M 0 0 L 357 0 L 357 357 L 0 357 Z M 0 0"/>
        </clipPath>
        <clipPath id="clip_path_25">
            <path d="M 0 0 L 357 0 L 357 357 L 0 357 Z M 0 0"/>
        </clipPath>
        <clipPath id="clip_path_26">
            <path d="M 0 0 L 357 0 L 357 357 L 0 357 Z M 0 0"/>
        </clipPath>
        <clipPath id="clip_path_27">
            <path d="M 0 0 L 357 0 L 357 357 L 0 357 Z M 0 0"/>
        </clipPath>
        <clipPath id="clip_path_28">
            <path d="M 0 0 L 357 0 L 357 357 L 0 357 Z M 0 0"/>
        </clipPath>
        <clipPath id="clip_path_29">
            <path d="M 0 0 L 357 0 L 357 357 L 0 357 Z M 0 0"/>
        </clipPath>
        <clipPath id="clip_path">
            <path d="M 0 0 L 500 0 L 500 500 L 0 500 Z M 0 0"/>
        </clipPath>
        <clipPath id="clip_path_1">
            <path d="M 0 0 L 500 0 L 500 500 L 0 500 Z M 0 0"/>
        </clipPath>
        <clipPath id="clip_path_2">
            <path d="M 0 0 L 500 0 L 500 500 L 0 500 Z M 0 0"/>
        </clipPath>
        <clipPath id="clip_path_3">
            <path d="M 0 0 L 500 0 L 500 500 L 0 500 Z M 0 0"/>
        </clipPath>
        <clipPath id="clip_path_4">
            <path d="M 0 0 L 500 0 L 500 500 L 0 500 Z M 0 0"/>
        </clipPath>
        <clipPath id="clip_path_5">
            <path d="M 0 0 L 500 0 L 500 500 L 0 500 Z M 0 0"/>
        </clipPath>
        <clipPath id="clip_path_6">
            <path d="M 0 0 L 500 0 L 500 500 L 0 500 Z M 0 0"/>
        </clipPath>
        <clipPath id="clip_path_7">
            <path d="M 0 0 L 500 0 L 500 500 L 0 500 Z M 0 0"/>
        </clipPath>
        <clipPath id="clip_path_8">
            <path d="M 0 0 L 500 0 L 500 500 L 0 500 Z M 0 0"/>
        </clipPath>
        <clipPath id="clip_path_9">
            <path d="M 0 0 L 500 0 L 500 500 L 0 500 Z M 0 0"/>
        </clipPath>
        <clipPath id="clip_path_10">
            <path d="M 0 0 L 500 0 L 500 500 L 0 500 Z M 0 0"/>
        </clipPath>
        <clipPath id="clip_path_11">
            <path d="M 0 0 L 500 0 L 500 500 L 0 500 Z M 0 0"/>
        </clipPath>
        <clipPath id="clip_path_12">
            <path d="M 0 0 L 500 0 L 500 500 L 0 500 Z M 0 0"/>
        </clipPath>
        <clipPath id="clip_path_13">
            <path d="M 0 0 L 500 0 L 500 500 L 0 500 Z M 0 0"/>
        </clipPath>
        <clipPath id="clip_path_14">
            <path d="M 0 0 L 500 0 L 500 500 L 0 500 Z M 0 0"/>
        </clipPath>
        <clipPath id="clip_path_15">
            <path d="M 0 0 L 500 0 L 500 500 L 0 500 Z M 0 0"/>
        </clipPath>
    </defs>
    <g id="group_2">
        <path
            id="path_16"
            clip-path="url(#clip_path_16)"
            d="M 0 357 L 357 357 L 357 0 L 0 0 L 0 357 Z"
            fill="none"/>
        <path
            id="path_17"
            clip-path="url(#clip_path_17)"
            d="M 131.105 116.694 C 131.113 117.128 131.105 117.562 131.077 117.987 C 131.068 118.105 131.059 118.213 131.049 118.322 C 131.042 118.512 131.023 118.703 130.996 118.892 C 130.914 119.571 130.787 120.24 130.616 120.9 C 130.535 121.254 130.435 121.606 130.317 121.95 C 130.244 122.186 130.163 122.412 130.082 122.647 C 129.629 123.859 129.041 125.018 128.318 126.085 C 127.938 126.646 127.522 127.188 127.069 127.705 C 126.608 128.23 126.119 128.727 125.594 129.189 C 124.536 130.138 123.351 130.952 122.048 131.604 L 122.02 131.613 C 120.953 132.157 119.813 132.572 118.6 132.871 C 117.189 133.215 115.768 133.368 114.374 133.35 L 114.357 133.35 C 112.719 133.315 111.108 133.034 109.58 132.527 C 108.448 132.165 107.353 131.668 106.331 131.07 C 105.734 130.718 105.164 130.329 104.62 129.903 C 104.042 129.46 103.499 128.971 102.984 128.446 C 102.649 128.112 102.322 127.758 102.023 127.388 C 101.671 126.962 101.337 126.52 101.03 126.058 C 100.839 125.759 100.649 125.452 100.468 125.144 C 100.215 124.71 99.98 124.257 99.772 123.796 C 99.473 123.153 99.22 122.484 99.012 121.796 C 98.912 121.48 98.821 121.154 98.739 120.828 C 98.605 120.267 98.496 119.715 98.424 119.155 C 98.405 119.055 98.387 118.956 98.378 118.856 L 98.378 118.846 C 98.369 118.793 98.361 118.738 98.361 118.683 C 98.361 118.657 98.351 118.638 98.351 118.612 C 98.342 118.539 98.333 118.476 98.333 118.404 C 98.225 117.272 98.243 116.159 98.369 115.065 C 98.451 114.296 98.595 113.545 98.785 112.802 C 99.057 111.753 99.436 110.74 99.908 109.772 C 100.006 109.555 100.116 109.337 100.234 109.129 C 101.093 107.537 102.215 106.08 103.554 104.84 C 105.526 103.014 107.977 101.656 110.774 100.968 C 113.434 100.317 116.085 100.362 118.564 100.968 C 118.881 101.05 119.198 101.131 119.505 101.231 C 120.762 101.611 121.975 102.153 123.096 102.823 C 123.739 103.203 124.355 103.619 124.933 104.099 C 125.387 104.443 125.82 104.832 126.227 105.239 C 127.123 106.125 127.919 107.112 128.607 108.207 C 129.05 108.922 129.448 109.673 129.792 110.469 C 129.819 110.532 129.846 110.605 129.874 110.677 C 129.883 110.703 129.902 110.74 129.91 110.768 C 130.063 111.147 130.199 111.536 130.326 111.925 C 130.444 112.278 130.543 112.639 130.633 113.011 C 130.796 113.689 130.924 114.369 131.005 115.047 C 131.068 115.599 131.105 116.142 131.105 116.694 Z"
            fill="#06b1c3"/>
        <path
            id="path_18"
            clip-path="url(#clip_path_18)"
            d="M 128.318 126.085 C 127.938 126.646 127.522 127.188 127.069 127.705 C 126.608 128.23 126.119 128.727 125.594 129.189 C 124.536 130.138 123.351 130.952 122.048 131.604 L 122.02 131.613 L 114.374 133.35 L 114.357 133.35 C 112.719 133.315 111.108 133.034 109.58 132.527 C 108.448 132.165 107.353 131.668 106.331 131.07 L 125.666 126.683 L 128.318 126.085 Z"
            fill="#3693c1"/>
        <path
            id="path_19"
            clip-path="url(#clip_path_19)"
            d="M 131.105 116.694 C 131.113 117.128 131.105 117.562 131.077 117.987 C 131.068 118.105 131.059 118.213 131.049 118.322 C 131.042 118.512 131.023 118.703 130.996 118.892 C 130.914 119.571 130.787 120.24 130.616 120.9 L 125.477 122.068 L 102.023 127.388 C 101.671 126.962 101.337 126.52 101.03 126.058 C 100.839 125.759 100.649 125.452 100.468 125.144 C 100.215 124.71 99.98 124.257 99.772 123.796 L 124.988 118.078 L 131.105 116.694 Z"
            fill="#28a0b3"/>
        <path
            id="path_20"
            clip-path="url(#clip_path_20)"
            d="M 130.326 111.925 L 123.974 113.364 L 98.424 119.155 C 98.405 119.055 98.387 118.956 98.378 118.856 L 98.378 118.846 C 98.37 118.793 98.359 118.738 98.359 118.683 C 98.359 118.657 98.351 118.638 98.351 118.612 C 98.342 118.539 98.333 118.476 98.333 118.404 C 98.225 117.272 98.242 116.159 98.37 115.065 L 122.763 109.537 L 128.608 108.207 C 129.051 108.922 129.448 109.673 129.792 110.469 C 129.819 110.532 129.847 110.605 129.873 110.677 C 129.883 110.703 129.9 110.74 129.91 110.768 C 130.063 111.147 130.199 111.536 130.326 111.925 Z"
            fill="#0c8389"/>
        <path
            id="path_21"
            clip-path="url(#clip_path_21)"
            d="M 124.933 104.099 L 120.843 105.031 L 99.906 109.772 C 100.006 109.555 100.115 109.337 100.233 109.129 C 101.093 107.537 102.215 106.08 103.554 104.841 L 118.826 101.384 L 119.505 101.231 C 120.764 101.611 121.975 102.153 123.097 102.823 C 123.739 103.203 124.354 103.619 124.933 104.099 Z"
            fill="#0f6e84"/>
        <path
            id="path_22"
            clip-path="url(#clip_path_22)"
            d="M 131.105 116.694 C 131.113 117.128 131.105 117.562 131.077 117.987 C 131.068 118.105 131.059 118.213 131.049 118.322 C 131.042 118.512 131.023 118.703 130.996 118.892 C 130.914 119.571 130.787 120.24 130.616 120.9 C 130.535 121.254 130.435 121.606 130.317 121.95 C 130.244 122.186 130.163 122.412 130.082 122.647 C 129.629 123.859 129.041 125.018 128.318 126.085 C 127.938 126.646 127.522 127.188 127.069 127.705 C 126.608 128.23 126.119 128.727 125.594 129.189 C 125.639 128.338 125.666 127.497 125.666 126.683 C 125.676 125.081 125.613 123.542 125.477 122.068 C 125.368 120.684 125.205 119.353 124.988 118.078 C 124.716 116.413 124.373 114.848 123.974 113.364 C 123.612 112.016 123.205 110.74 122.763 109.537 C 122.165 107.89 121.513 106.388 120.844 105.031 C 120.175 103.674 119.487 102.452 118.826 101.384 C 118.736 101.239 118.644 101.104 118.564 100.968 C 118.881 101.05 119.198 101.131 119.505 101.231 C 120.762 101.611 121.975 102.153 123.096 102.823 C 123.739 103.203 124.355 103.619 124.933 104.099 C 125.387 104.443 125.82 104.832 126.227 105.239 C 127.123 106.125 127.919 107.112 128.607 108.207 C 129.05 108.922 129.448 109.673 129.792 110.469 C 129.819 110.532 129.846 110.605 129.874 110.677 C 129.883 110.703 129.902 110.74 129.91 110.768 C 130.063 111.147 130.199 111.536 130.326 111.925 C 130.444 112.278 130.543 112.639 130.633 113.011 C 130.796 113.689 130.924 114.369 131.005 115.047 C 131.068 115.599 131.105 116.142 131.105 116.694 Z"
            fill="#000000"
            fill-opacity="0.199997"
            stroke-opacity="0.199997"/>
        <path
            id="path_23"
            clip-path="url(#clip_path_23)"
            d="M 117.804 125.543 C 100.269 129.84 85.385 130.608 84.563 127.253 C 84.028 125.071 89.593 121.679 98.378 118.385 C 98.396 118.449 98.414 118.512 98.442 118.575 C 98.459 118.648 98.477 118.72 98.505 118.792 C 94.434 120.656 92.063 122.43 92.37 123.678 C 92.985 126.166 104.025 125.596 117.035 122.412 C 130.037 119.218 140.089 114.621 139.482 112.134 C 139.13 110.703 135.366 110.287 129.774 110.776 C 129.765 110.749 129.765 110.721 129.756 110.695 C 129.747 110.622 129.729 110.55 129.72 110.477 C 140.08 109.021 147.481 109.355 148.06 111.69 C 148.874 115.047 135.329 121.244 117.804 125.543 Z"
            fill="#f25a46"/>
        <path
            id="path_24"
            clip-path="url(#clip_path_24)"
            d="M 116.989 123.027 C 101.69 126.781 88.769 127.713 88.128 125.117 C 87.747 123.561 91.836 121.099 98.442 118.575 C 98.461 118.648 98.477 118.72 98.505 118.793 C 94.432 120.656 92.062 122.43 92.37 123.678 C 92.987 126.166 104.025 125.596 117.035 122.412 C 130.037 119.218 140.088 114.622 139.482 112.134 C 139.13 110.703 135.366 110.288 129.774 110.776 C 129.765 110.749 129.765 110.722 129.755 110.695 C 137.664 109.645 143.138 109.862 143.546 111.527 C 144.179 114.123 132.289 119.281 116.989 123.027 Z"
            fill="#aa1307"/>
        <path
            id="path_25"
            clip-path="url(#clip_path_25)"
            d="M 262.884 128.03 L 258.835 130.56 L 258.67 135.334 L 254.448 133.091 L 250.23 135.334 L 250.064 130.56 L 246.015 128.03 L 250.064 125.501 L 250.23 120.725 L 254.448 122.97 L 258.67 120.725 L 258.835 125.501 L 262.884 128.03 Z"
            fill="#fed573"/>
        <path
            id="path_26"
            clip-path="url(#clip_path_26)"
            d="M 234.374 108.029 L 231.518 109.814 L 231.401 113.182 L 228.424 111.599 L 225.448 113.182 L 225.33 109.814 L 222.474 108.029 L 225.33 106.244 L 225.448 102.877 L 228.424 104.459 L 231.401 102.877 L 231.518 106.244 L 234.374 108.029 Z"
            fill="#fed573"/>
        <path
            id="path_27"
            clip-path="url(#clip_path_27)"
            d="M 257.06 105.564 C 257.06 107.049 255.857 108.252 254.373 108.252 C 252.888 108.252 251.685 107.049 251.685 105.564 C 251.685 104.08 252.888 102.877 254.373 102.877 C 255.857 102.877 257.06 104.08 257.06 105.564 Z"
            fill="#fed573"/>
        <path
            id="path_28"
            clip-path="url(#clip_path_28)"
            d="M 267.75 140.286 C 267.75 141.629 266.661 142.719 265.318 142.719 C 263.973 142.719 262.884 141.629 262.884 140.286 C 262.884 138.942 263.973 137.853 265.318 137.853 C 266.661 137.853 267.75 138.942 267.75 140.286 Z"
            fill="#fed573"/>
        <path
            id="path_29"
            clip-path="url(#clip_path_29)"
            d="M 204.938 110.606 C 204.938 112.029 203.784 113.182 202.362 113.182 C 200.939 113.182 199.784 112.029 199.784 110.606 C 199.784 109.183 200.939 108.029 202.362 108.029 C 203.784 108.029 204.938 109.183 204.938 110.606 Z"
            fill="#fed573"/>
    </g>
    <g
        id="group_1"
        transform="translate(-71.42857 -71.42857)">
        <g id="group">
            <path
                id="path"
                clip-path="url(#clip_path)"
                d="M 219.748 296.993 C 219.408 300.87 214.329 303.591 208.405 303.071 C 202.48 302.552 197.953 298.988 198.293 295.111 C 198.633 291.234 203.712 288.513 209.637 289.033 C 215.561 289.553 220.089 293.117 219.748 296.993 Z"
                fill="#ffb026"/>
            <path
                id="path_1"
                clip-path="url(#clip_path_1)"
                d="M 262.901 299.84 C 262.901 304.319 256.949 307.95 249.606 307.95 C 242.263 307.95 236.311 304.319 236.311 299.84 C 236.311 295.361 242.263 291.73 249.606 291.73 C 256.949 291.73 262.901 295.361 262.901 299.84 Z"
                fill="#ffb026"/>
            <path
                id="path_2"
                clip-path="url(#clip_path_2)"
                d="M 301.779 294.703 C 302.331 297.737 298.143 302.337 292.075 303.44 C 286.007 304.543 280.355 301.732 279.803 298.698 C 279.252 295.664 283.724 292.31 289.793 291.206 C 295.861 290.103 301.227 291.668 301.779 294.703 Z"
                fill="#ffb026"/>
            <path
                id="path_3"
                clip-path="url(#clip_path_3)"
                d="M 339.357 284.694 C 339.357 284.694 330.183 264.955 266.958 256.022 L 250.001 256.443 L 233.044 256.022 C 169.817 264.955 160.643 284.694 160.643 284.694 C 160.643 284.694 199.105 298.247 250.001 297.934 C 300.896 298.247 339.357 284.694 339.357 284.694 Z"
                fill="#5f63c0"/>
            <path
                id="path_4"
                clip-path="url(#clip_path_4)"
                d="M 320.769 279.308 C 321.229 281.009 319.246 283.025 316.339 283.811 C 313.433 284.596 310.705 283.854 310.245 282.153 C 309.785 280.452 311.768 278.436 314.674 277.65 C 317.581 276.865 320.309 277.607 320.769 279.308 Z"
                fill="#fb4a4c"/>
            <path
                id="path_5"
                clip-path="url(#clip_path_5)"
                d="M 290.377 285.122 C 290.548 286.876 288.257 288.534 285.261 288.826 C 282.265 289.117 279.697 287.932 279.526 286.178 C 279.356 284.424 281.647 282.766 284.643 282.474 C 287.639 282.183 290.206 283.368 290.377 285.122 Z"
                fill="#fb4a4c"/>
            <path
                id="path_6"
                clip-path="url(#clip_path_6)"
                d="M 254.778 287.907 C 254.79 289.669 252.359 291.114 249.348 291.134 C 246.338 291.155 243.887 289.742 243.876 287.98 C 243.864 286.218 246.295 284.773 249.305 284.753 C 252.316 284.733 254.766 286.145 254.778 287.907 Z"
                fill="#fb4a4c"/>
            <path
                id="path_7"
                clip-path="url(#clip_path_7)"
                d="M 220.107 285.78 C 219.788 287.513 217.128 288.475 214.168 287.928 C 211.208 287.382 209.067 285.534 209.386 283.801 C 209.707 282.068 212.366 281.107 215.326 281.653 C 218.287 282.199 220.427 284.047 220.107 285.78 Z"
                fill="#fb4a4c"/>
            <path
                id="path_8"
                clip-path="url(#clip_path_8)"
                d="M 189.639 278.445 C 189.409 280.192 186.802 281.29 183.818 280.896 C 180.832 280.503 178.6 278.767 178.83 277.02 C 179.061 275.273 181.666 274.176 184.652 274.57 C 187.636 274.963 189.868 276.698 189.639 278.445 Z"
                fill="#fb4a4c"/>
            <path
                id="path_9"
                clip-path="url(#clip_path_9)"
                d="M 248.534 281.258 C 232.183 281.258 213.218 278.066 192.874 268.628 L 192.568 268.487 L 192.541 268.152 C 192.527 267.994 191.304 252.154 197.566 234.818 C 202.173 222.07 211.682 206.407 231.3 196.873 C 247.204 189.143 266.287 190.652 280.032 201.776 C 280.516 202.169 281 202.575 281.481 202.995 C 296.148 215.804 304.313 237.264 305.753 266.777 L 305.769 267.116 L 305.482 267.295 C 305.148 267.503 282.475 281.258 248.534 281.258 Z"
                fill="#fff0bb"/>
            <path
                id="path_10"
                clip-path="url(#clip_path_10)"
                d="M 296.362 255.201 C 294.633 250.501 292.334 245.185 289.329 240.008 C 291.131 239.316 292.416 237.581 292.416 235.535 C 292.416 232.883 290.265 230.732 287.612 230.732 C 286.234 230.732 285 231.321 284.124 232.251 C 275.905 221.721 263.963 213.701 246.792 216.025 C 231.714 218.066 221.252 224.167 214.005 232.01 C 213.149 231.224 212.018 230.732 210.764 230.732 C 208.112 230.732 205.962 232.883 205.962 235.535 C 205.962 237.258 206.876 238.756 208.237 239.604 C 201.819 249.913 199.329 261.683 198.473 271.07 C 216.697 278.612 233.694 281.258 248.534 281.258 C 273.703 281.258 292.665 273.698 300.926 269.703 C 299.76 265.319 298.268 260.388 296.362 255.201 Z"
                fill="#00b57c"/>
            <path
                id="path_11"
                clip-path="url(#clip_path_11)"
                d="M 244.02 252.745 C 244.946 254.232 246.352 255.604 247.987 256.265 C 251.23 257.575 253.889 255.357 255.762 252.891 C 256.473 251.956 254.889 251.046 254.187 251.97 C 252.538 254.141 250.253 255.809 247.698 254.041 C 246.874 253.471 246.127 252.678 245.596 251.824 C 244.977 250.829 243.398 251.744 244.02 252.745 Z"
                fill="#032560"/>
            <path
                id="path_12"
                clip-path="url(#clip_path_12)"
                d="M 238.328 242.062 C 238.328 243.211 237.396 244.143 236.248 244.143 C 235.099 244.143 234.167 243.211 234.167 242.062 C 234.167 240.913 235.099 239.981 236.248 239.981 C 237.396 239.981 238.328 240.913 238.328 242.062 Z"
                fill="#032560"/>
            <path
                id="path_13"
                clip-path="url(#clip_path_13)"
                d="M 265.015 242.062 C 265.015 243.211 264.083 244.143 262.934 244.143 C 261.786 244.143 260.854 243.211 260.854 242.062 C 260.854 240.913 261.786 239.981 262.934 239.981 C 264.083 239.981 265.015 240.913 265.015 242.062 Z"
                fill="#032560"/>
            <path
                id="path_14"
                clip-path="url(#clip_path_14)"
                d="M 236.941 250.877 C 236.941 252.915 235.065 254.567 232.751 254.567 C 230.437 254.567 228.561 252.915 228.561 250.877 C 228.561 248.839 230.437 247.188 232.751 247.188 C 235.065 247.188 236.941 248.839 236.941 250.877 Z"
                fill="#ffab3d"/>
            <path
                id="path_15"
                clip-path="url(#clip_path_15)"
                d="M 269.658 250.877 C 269.658 252.915 267.782 254.567 265.468 254.567 C 263.153 254.567 261.278 252.915 261.278 250.877 C 261.278 248.839 263.153 247.188 265.468 247.188 C 267.782 247.188 269.658 248.839 269.658 250.877 Z"
                fill="#ffab3d"/>
        </g>
    </g>
</svg>
