<svg width="271" height="271" viewBox="0 0 271 271" fill="none" xmlns="http://www.w3.org/2000/svg">
<path d="M96.0585 195.877C95.6151 200.823 88.9926 204.293 81.2694 203.63C73.5447 202.968 67.6426 198.422 68.0859 193.476C68.5293 188.53 75.1518 185.058 82.8766 185.722C90.5998 186.385 96.5034 190.933 96.0585 195.877Z" fill="black"/>
<path d="M152.318 199.509C152.318 205.223 144.56 209.855 134.986 209.855C125.412 209.855 117.652 205.223 117.652 199.509C117.652 193.796 125.412 189.164 134.986 189.164C144.56 189.164 152.318 193.796 152.318 199.509Z" fill="black"/>
<path d="M203.008 192.953C203.727 196.823 198.267 202.691 190.356 204.098C182.445 205.505 175.076 201.92 174.357 198.05C173.638 194.178 179.469 189.9 187.382 188.492C195.293 187.085 202.288 189.081 203.008 192.953Z" fill="black"/>
<path d="M111.121 68.1531C131.855 58.2917 156.736 60.2177 174.656 74.408C175.287 74.9098 175.918 75.427 176.545 75.9627C195.667 92.3035 206.312 119.681 208.188 157.33L208.21 157.762L207.836 157.99C207.391 158.262 177.834 175.804 133.589 175.804C112.271 175.804 87.5469 171.731 61.0232 159.691L60.6238 159.511L60.5886 159.085C60.5702 158.883 58.9755 138.675 67.1404 116.56C73.1456 100.298 85.5438 80.316 111.121 68.1531ZM173.451 117.012C164.005 104.973 150.278 95.8035 130.54 98.4607C113.208 100.794 101.183 107.77 92.8523 116.738C91.8683 115.839 90.568 115.277 89.1267 115.277C86.0786 115.277 83.6072 117.736 83.6072 120.768C83.6073 122.738 84.6576 124.451 86.2224 125.421C78.8461 137.207 75.9837 150.665 74.9998 161.397C95.9469 170.02 115.484 173.046 132.543 173.046C161.473 173.046 183.269 164.402 192.764 159.834C191.425 154.821 189.709 149.184 187.518 143.253C185.531 137.879 182.889 131.801 179.435 125.883C181.506 125.091 182.983 123.107 182.983 120.768C182.983 117.736 180.51 115.277 177.461 115.277C175.877 115.277 174.458 115.95 173.451 117.012Z" fill="black"/>
<path d="M199.156 151.811C244.354 164.089 252 180.187 252 180.187C251.961 180.2 201.829 197.476 135.501 197.077C69.1669 197.476 19.0334 180.198 19 180.187C19 180.187 26.4126 164.582 69.7812 152.381C69.0943 156.017 68.628 159.525 68.3223 162.806C92.0814 172.427 114.241 175.804 133.59 175.804C166.404 175.804 191.126 166.158 201.896 161.062C201.104 158.149 200.195 155.049 199.156 151.811Z" fill="black"/>
<path d="M118.829 153.369C121.319 157.358 125.103 161.04 129.502 162.814C138.225 166.327 145.379 160.376 150.417 153.761C152.333 151.252 148.07 148.81 146.183 151.287C141.745 157.115 135.598 161.59 128.724 156.847C126.507 155.315 124.496 153.188 123.07 150.899C121.402 148.227 117.155 150.682 118.829 153.369Z" fill="black"/>
<path d="M118.778 127.89C118.778 130.589 116.586 132.778 113.889 132.778C111.189 132.778 109 130.589 109 127.89C109 125.189 111.189 123 113.889 123C116.586 123 118.778 125.189 118.778 127.89Z" fill="black"/>
<path d="M158.556 127.89C158.556 130.589 156.366 132.778 153.667 132.778C150.967 132.778 148.778 130.589 148.778 127.89C148.778 125.189 150.967 123 153.667 123C156.366 123 158.556 125.189 158.556 127.89Z" fill="black"/>
</svg>
