<svg
    xmlns="http://www.w3.org/2000/svg"
    viewBox="0 0 24 24"
    id="vector">
    <g
        id="group"
        transform="rotate(30 12 12)">
        <path
            id="path"
            d="M 11.3 22.66 L 12.7 22.66 L 12.7 24 L 11.3 24 Z M 11.3 22.66 M 12.07 0.06 L 12 0 L 11.93 0.06 C 10.459 1.443 9.279 3.105 8.46 4.95 L 15.54 4.95 C 14.722 3.104 13.542 1.442 12.07 0.06 Z M 12.07 0.06 M 4.04 13.69 L 4.04 19.89 L 7.71 18.74 C 6.687 16.813 6.058 14.702 5.86 12.53 Z M 4.04 13.69 M 13.28 10.8 C 13.281 10.529 13.196 10.265 13.037 10.046 C 12.878 9.826 12.654 9.663 12.396 9.579 C 12.139 9.495 11.861 9.495 11.604 9.579 C 11.346 9.663 11.122 9.826 10.963 10.046 C 10.804 10.265 10.719 10.529 10.72 10.8 C 10.721 11.139 10.856 11.463 11.096 11.702 C 11.336 11.942 11.661 12.076 12 12.076 C 12.339 12.076 12.664 11.942 12.904 11.702 C 13.144 11.463 13.279 11.139 13.28 10.8 Z M 13.28 10.8"
            fill="#000000"/>
        <path
            id="path_1"
            d="M 14.44 19.13 C 15.644 17.257 16.416 15.139 16.7 12.93 C 16.983 10.721 16.772 8.477 16.08 6.36 L 7.92 6.36 C 7.228 8.477 7.017 10.721 7.3 12.93 C 7.584 15.139 8.356 17.257 9.56 19.13 L 11.3 19.13 L 11.3 21.19 L 12.7 21.19 L 12.7 19.12 Z M 9.32 10.8 C 9.318 10.232 9.497 9.678 9.83 9.217 C 10.163 8.757 10.633 8.414 11.174 8.238 C 11.714 8.063 12.296 8.063 12.836 8.238 C 13.377 8.414 13.847 8.757 14.18 9.217 C 14.513 9.678 14.692 10.232 14.69 10.8 C 14.688 11.51 14.404 12.192 13.901 12.693 C 13.397 13.195 12.715 13.477 12.005 13.477 C 11.295 13.477 10.613 13.195 10.109 12.693 C 9.606 12.192 9.322 11.51 9.32 10.8 Z M 9.32 10.8 M 8.83 20.53 L 10.23 20.53 L 10.23 22.43 L 8.83 22.43 Z M 8.83 20.53 M 18.14 12.53 C 17.94 14.7 17.31 16.81 16.29 18.73 L 19.96 19.89 L 19.96 13.69 Z M 18.14 12.53 M 13.77 20.53 L 15.17 20.53 L 15.17 22.43 L 13.77 22.43 Z M 13.77 20.53"
            fill="#000000"/>
    </g>
</svg>
